<svg version="1.0" xmlns="http://www.w3.org/2000/svg"
 width="1024.000000pt" height="1024.000000pt" viewBox="0 0 1024.000000 1024.000000"
 preserveAspectRatio="xMidYMid meet">

<g transform="translate(0.000000,1024.000000) scale(0.100000,-0.100000)"
fill="#000000" stroke="none">
<path d="M3575 8845 c-238 -52 -449 -232 -539 -459 -59 -148 -56 63 -56 -3214
0 -2714 2 -3020 16 -3090 45 -218 207 -429 406 -526 178 -88 31 -81 1718 -81
l1495 0 80 23 c139 40 244 103 343 207 94 97 149 188 194 320 l23 70 5 1775 5
1774 25 1 c86 4 93 6 126 39 l34 34 0 183 c0 126 -4 192 -13 208 -20 39 -59
62 -120 68 l-57 6 0 88 0 89 54 0 c72 0 102 12 126 52 19 32 20 51 20 516 0
438 -2 487 -17 513 -23 38 -69 59 -132 59 l-51 0 0 339 c0 374 -7 437 -58 560
-39 93 -105 184 -190 262 -87 80 -158 123 -269 163 l-88 31 -1510 2 c-1217 1
-1522 -1 -1570 -12z m2635 -300 c41 -21 60 -53 60 -101 0 -110 -142 -153 -199
-60 -32 52 -28 101 13 142 38 38 77 44 126 19z m-2244 -23 c22 -15 44 -57 44
-84 0 -15 -11 -39 -24 -55 -33 -38 -95 -39 -132 -2 -58 59 -20 149 64 149 20
0 42 -4 48 -8z m328 -8 c48 -47 45 -113 -7 -144 -44 -27 -71 -25 -108 8 -66
59 -28 152 61 152 22 0 45 -7 54 -16z m1438 -34 c22 -27 23 -58 2 -85 -15 -20
-28 -20 -606 -23 -636 -3 -627 -3 -643 48 -8 25 17 68 45 78 10 4 281 6 602 5
l583 -2 17 -21z m-515 -515 c65 -19 143 -88 177 -157 47 -95 32 -225 -36 -310
-35 -44 -111 -98 -139 -98 -10 0 -19 -4 -21 -10 -1 -5 -2 -136 0 -289 l3 -280
47 -6 c242 -29 457 -88 599 -165 41 -22 76 -40 79 -40 2 0 4 124 4 275 l0 274
-44 19 c-103 46 -168 140 -174 254 -7 122 47 221 152 276 44 23 63 27 136 27
76 0 91 -3 138 -29 60 -34 102 -82 133 -152 17 -38 21 -61 17 -118 -8 -119
-71 -212 -175 -258 l-43 -19 0 -319 0 -318 52 -46 c29 -25 55 -45 58 -45 3 1
67 65 142 143 l136 141 -16 61 c-19 74 -8 140 38 220 52 92 151 140 270 132
245 -18 350 -307 177 -487 -58 -59 -115 -83 -202 -84 -51 0 -83 6 -119 22
l-49 21 -30 -27 c-47 -45 -105 -103 -175 -175 l-65 -68 50 -52 c109 -117 230
-305 298 -466 179 -425 167 -895 -35 -1330 l-43 -93 23 -57 c13 -31 65 -146
114 -256 l91 -198 49 -19 c159 -60 207 -265 90 -383 -49 -48 -82 -61 -164 -61
-51 0 -85 6 -106 17 -47 25 -102 88 -120 135 l-17 43 -53 0 -53 0 -88 102
c-48 56 -106 122 -129 146 l-40 45 -63 -46 c-34 -26 -89 -63 -122 -82 -32 -20
-59 -41 -59 -46 0 -5 37 -103 82 -218 l81 -209 48 -21 c53 -25 107 -79 141
-143 33 -62 33 -194 0 -256 -31 -59 -94 -119 -148 -143 -69 -29 -175 -26 -241
7 -129 64 -196 208 -159 339 29 96 80 156 169 196 15 7 27 18 27 25 0 13 -125
330 -138 352 -7 9 -25 5 -83 -18 -100 -42 -238 -77 -380 -97 l-119 -16 0 -167
c0 -166 0 -167 24 -178 42 -19 99 -76 117 -117 27 -59 25 -150 -4 -206 -76
-143 -278 -166 -385 -44 -61 69 -74 171 -31 256 20 40 86 103 118 114 20 6 21
12 21 176 l0 169 -45 0 c-29 0 -51 -6 -63 -17 -9 -10 -99 -92 -200 -181 -170
-153 -181 -166 -174 -190 4 -15 7 -67 7 -117 0 -68 -5 -99 -19 -125 -36 -68
-85 -118 -148 -149 -51 -26 -73 -31 -133 -31 -93 0 -153 21 -215 77 -99 89
-135 197 -106 314 9 35 30 83 46 106 16 23 56 120 88 215 53 152 106 299 127
349 5 13 -11 30 -61 68 l-68 51 -66 -63 c-36 -34 -91 -86 -123 -115 -54 -50
-58 -57 -62 -108 -5 -61 -30 -116 -71 -158 -43 -42 -82 -59 -154 -63 -57 -4
-72 -1 -120 24 -156 82 -172 299 -30 397 28 19 42 49 130 298 l99 277 -45 98
c-217 465 -213 957 9 1398 l35 70 -67 200 c-37 110 -70 206 -74 213 -5 7 -29
12 -56 12 -107 0 -191 53 -240 152 -77 154 -7 336 152 395 18 6 64 12 103 12
60 1 80 -4 133 -30 70 -35 126 -100 156 -182 10 -26 27 -54 37 -61 10 -7 72
-63 137 -124 118 -111 119 -111 137 -91 33 36 205 145 309 196 55 26 102 49
104 51 6 3 -15 40 -93 164 -56 90 -62 97 -86 90 -78 -21 -193 9 -253 66 -74
70 -107 180 -82 275 36 138 138 217 281 217 145 0 263 -108 281 -258 6 -56
-14 -136 -48 -183 -10 -15 -19 -33 -19 -40 0 -7 29 -58 64 -113 35 -56 68
-110 74 -121 26 -48 24 -47 99 -27 39 11 112 25 164 32 52 6 108 15 124 19
l30 7 0 284 0 283 -42 14 c-24 8 -62 33 -86 56 -228 222 -14 592 290 502z m3
-5571 c152 -45 251 -179 251 -338 0 -85 -19 -145 -66 -204 -65 -84 -142 -127
-246 -138 -154 -16 -290 61 -361 205 -19 38 -23 62 -23 141 0 85 3 101 28 148
85 162 250 236 417 186z"/>
<path d="M5053 7800 c-63 -38 -83 -131 -41 -197 65 -107 234 -66 255 61 7 45
-26 115 -66 139 -39 23 -108 22 -148 -3z"/>
<path d="M5953 7579 c-40 -12 -80 -59 -89 -104 -9 -51 29 -124 79 -149 51 -24
97 -15 147 30 50 46 59 86 32 147 -29 64 -99 96 -169 76z"/>
<path d="M4218 7339 c-38 -23 -68 -70 -68 -108 0 -69 59 -131 124 -131 78 0
139 58 138 131 -2 99 -108 159 -194 108z"/>
<path d="M6670 6963 c-75 -39 -102 -128 -57 -194 28 -42 60 -59 112 -59 73 0
135 62 135 137 0 90 -110 157 -190 116z"/>
<path d="M3442 6773 c-85 -42 -85 -181 1 -233 41 -25 80 -25 136 0 24 11 46
19 48 17 2 -3 37 -96 78 -208 42 -112 78 -211 81 -219 5 -13 8 -12 17 4 21 32
67 90 118 144 27 29 49 56 49 61 0 8 -295 284 -311 289 -5 2 -9 16 -9 30 0 37
-33 88 -72 112 -40 24 -91 25 -136 3z"/>
<path d="M4960 6663 c-312 -49 -555 -156 -785 -343 -240 -196 -430 -499 -504
-800 -115 -473 34 -1006 384 -1378 211 -223 483 -374 795 -438 133 -28 411
-26 555 4 275 58 529 192 733 387 227 216 373 479 445 800 30 134 32 443 4
575 -78 366 -282 686 -583 913 -169 127 -420 235 -638 272 -81 14 -338 19
-406 8z m317 -340 l72 -6 11 -56 c19 -97 23 -103 66 -116 21 -6 72 -28 112
-49 l73 -37 50 31 c27 16 53 30 57 30 8 0 105 -106 181 -197 49 -58 49 -54
-16 -123 l-33 -36 25 -64 c13 -36 32 -92 42 -124 l18 -60 65 -14 c36 -8 70
-19 77 -26 17 -16 -1 -336 -19 -348 -7 -4 -32 -8 -54 -8 -84 0 -99 -8 -118
-58 -9 -26 -32 -74 -50 -106 l-34 -60 35 -52 35 -53 -35 -43 c-20 -24 -69 -73
-109 -108 -116 -103 -98 -99 -173 -45 -63 45 -68 46 -98 34 -42 -16 -56 -29
-32 -29 29 0 65 -40 65 -71 0 -18 -9 -35 -26 -48 -26 -20 -38 -21 -362 -21
-331 0 -336 0 -359 22 -45 42 -13 118 51 118 29 0 28 2 -28 36 l-60 36 -75
-37 -76 -36 -69 73 c-37 40 -88 99 -113 131 l-45 57 42 50 41 49 -34 93 c-19
51 -37 102 -39 113 -3 20 -24 29 -127 55 l-44 12 6 175 c3 96 8 178 11 180 2
3 41 10 85 15 53 7 81 15 81 23 0 21 58 158 79 186 l19 25 -34 55 c-18 30 -34
59 -34 64 0 22 227 225 252 225 6 0 32 -16 59 -36 47 -34 49 -35 79 -19 17 9
70 29 117 44 l87 28 20 73 20 72 95 -6 c53 -4 128 -9 168 -13z m210 -2015 c28
-26 30 -67 4 -99 l-19 -24 -338 -3 c-245 -2 -346 1 -367 9 -47 20 -62 84 -27
119 19 19 33 20 372 20 347 0 352 0 375 -22z m-85 -288 c25 -30 23 -64 -6 -97
l-24 -28 -244 -3 c-228 -2 -245 -1 -275 17 -39 25 -52 64 -32 100 l15 26 224
6 c303 8 320 7 342 -21z"/>
<path d="M5030 5799 c-194 -38 -340 -225 -340 -434 0 -196 119 -358 309 -420
40 -13 76 -16 146 -13 83 3 101 8 169 42 281 138 338 485 117 707 -109 109
-244 149 -401 118z"/>
<path d="M6424 4193 c-16 -21 -57 -71 -92 -111 -35 -40 -62 -77 -60 -82 5 -15
239 -280 247 -280 4 0 17 18 29 39 13 22 36 51 52 65 17 13 30 27 30 31 0 8
-162 358 -170 368 -4 4 -20 -9 -36 -30z"/>
<path d="M3775 4184 c-23 -54 -115 -314 -115 -325 0 -5 15 -15 33 -24 17 -8
39 -20 48 -27 14 -10 33 4 128 92 l111 104 -43 45 c-24 25 -63 71 -87 101 -24
30 -47 59 -51 64 -4 5 -15 -9 -24 -30z"/>
<path d="M4328 3673 c-9 -27 -37 -108 -62 -181 -25 -74 -46 -135 -46 -138 0
-2 8 0 17 3 12 5 15 2 11 -8 -3 -8 -13 -39 -21 -70 -12 -41 -24 -59 -43 -70
-47 -24 -84 -95 -84 -157 0 -101 55 -168 146 -178 39 -4 58 -1 94 18 64 33 90
77 90 149 0 33 -3 59 -7 59 -5 0 -19 -9 -33 -20 -14 -11 -31 -20 -37 -20 -7 0
-13 -5 -13 -10 0 -19 -48 -60 -70 -60 -27 0 -60 35 -60 64 0 33 25 56 59 56
20 0 37 11 59 36 35 41 34 50 -14 70 -30 12 -32 16 -24 41 18 62 30 83 47 83
19 0 86 -31 114 -51 14 -10 41 10 178 132 l161 144 -63 18 c-141 41 -225 71
-291 103 -38 19 -74 34 -81 34 -6 0 -18 -21 -27 -47z"/>
<path d="M5925 3130 c-56 -37 -78 -105 -54 -167 37 -98 157 -118 228 -37 25
28 31 43 31 82 0 84 -56 142 -137 142 -21 0 -51 -9 -68 -20z"/>
</g>
</svg>
